<svg width="64" height="90" viewBox="0 0 64 90" fill="none" xmlns="http://www.w3.org/2000/svg">
<g id="Asset 1 1" clip-path="url(#clip0_4_1459)">
<g id="Layer 2">
<g id="OBJECTS">
<path id="Vector" d="M15.6255 13.0561C15.6255 13.0561 11.6741 26.6598 14.0835 28.0195C16.4929 29.3792 16.9105 28.0195 16.9105 28.0195L20.2002 14.2011L15.6255 13.0561Z" fill="#EFCA6F"/>
<path id="Vector_2" d="M52.0427 26.8159C52.0427 26.8159 53.9703 10.4017 50.006 10.5058C46.0417 10.6099 44.5897 27.6357 52.0427 26.8159Z" fill="#EFCA6F"/>
<path id="Vector_3" d="M-0.000244141 89.8446C-0.000244141 89.8446 6.29631 58.571 33.4101 58.571C60.5238 58.571 63.9998 89.8446 63.9998 89.8446H-0.000244141Z" fill="#373C44"/>
<path id="Vector_4" d="M13.7301 36.0738C16.505 36.0738 18.7545 33.796 18.7545 30.9862C18.7545 28.1764 16.505 25.8986 13.7301 25.8986C10.9552 25.8986 8.70569 28.1764 8.70569 30.9862C8.70569 33.796 10.9552 36.0738 13.7301 36.0738Z" fill="#CE8282"/>
<path id="Vector_5" d="M51.0469 36.0738C53.8218 36.0738 56.0713 33.796 56.0713 30.9862C56.0713 28.1764 53.8218 25.8986 51.0469 25.8986C48.272 25.8986 46.0225 28.1764 46.0225 30.9862C46.0225 33.796 48.272 36.0738 51.0469 36.0738Z" fill="#CE8282"/>
<path id="Vector_6" d="M38.8778 49.4628L38.0297 38.1556L29.3109 39.3657L27.8846 55.8906C30.0576 55.6518 32.1575 54.9569 34.0504 53.8501C35.9432 52.7434 37.5873 51.2491 38.8778 49.4628Z" fill="#EAAD9B"/>
<path id="Vector_7" d="M15.1372 26.1458C15.003 28.2211 15.0979 30.305 15.4199 32.3589C16.0045 37.7002 18.5296 42.3454 23.3098 44.9282C28.0901 47.511 34.6501 48.4414 39.758 46.314C41.6797 45.5472 43.4278 44.3937 44.8966 42.9232C46.3654 41.4527 47.5243 39.6958 48.3033 37.7588C50.1152 33.2437 50.1152 27.4665 49.8646 22.5937C48.9715 4.52691 34.4445 4.79365 34.4445 4.79365C34.4445 4.79365 15.0665 3.28429 15.1372 26.1458Z" fill="#F2C3B3"/>
<path id="Vector_8" d="M27.8845 55.8906L27.242 63.1641C27.242 63.1641 27.499 66.8009 33.3073 67.4905C39.1155 68.1801 39.8351 62.0386 39.8351 62.0386L38.8778 49.4628C37.5873 51.2491 35.9432 52.7434 34.0503 53.8501C32.1575 54.9569 30.0575 55.6518 27.8845 55.8906Z" fill="#F2C3B3"/>
<path id="Vector_9" d="M24.5306 31.5847C25.0239 31.5847 25.4237 30.775 25.4237 29.7761C25.4237 28.7772 25.0239 27.9675 24.5306 27.9675C24.0374 27.9675 23.6375 28.7772 23.6375 29.7761C23.6375 30.775 24.0374 31.5847 24.5306 31.5847Z" fill="#373C44"/>
<path id="Vector_10" d="M41.043 31.8905C41.5363 31.8905 41.9361 31.0808 41.9361 30.0819C41.9361 29.083 41.5363 28.2733 41.043 28.2733C40.5498 28.2733 40.1499 29.083 40.1499 30.0819C40.1499 31.0808 40.5498 31.8905 41.043 31.8905Z" fill="#373C44"/>
<path id="Vector_11" d="M32.6647 30.9862C32.3049 31.2139 31.958 31.4351 31.6239 31.6368C31.2897 31.8385 30.9813 32.1442 30.9428 32.3654C30.9428 32.45 30.9813 32.5606 31.1355 32.6907C31.2584 32.8115 31.4051 32.9046 31.566 32.964C31.9434 33.0467 32.3377 32.9767 32.6647 32.7688C32.5405 32.9688 32.3648 33.1309 32.1565 33.2374C31.9483 33.344 31.7152 33.3912 31.4825 33.3738C31.2461 33.3368 31.0241 33.2356 30.84 33.0811C30.7224 33.0027 30.6265 32.8952 30.5613 32.7689C30.4961 32.6425 30.4638 32.5014 30.4673 32.3589C30.52 32.0996 30.6638 31.8684 30.8721 31.7083C31.0491 31.5717 31.241 31.456 31.4439 31.3635C31.8284 31.1727 32.2405 31.0453 32.6647 30.9862Z" fill="#373C44"/>
<path id="Vector_12" d="M30.1975 35.2215C30.584 35.4756 30.9926 35.6934 31.4183 35.8721C31.8254 36.0501 32.2605 36.1536 32.7033 36.1779C33.1448 36.2071 33.5864 36.1243 33.9883 35.9371C34.4054 35.7396 34.7979 35.4929 35.1577 35.202C35.0354 35.4126 34.8934 35.6109 34.7336 35.794C34.5656 35.9783 34.3731 36.1381 34.1618 36.2689C33.7328 36.5564 33.2234 36.6957 32.7097 36.6658C32.21 36.635 31.7238 36.4888 31.2883 36.2385C30.8529 35.9881 30.4798 35.6403 30.1975 35.2215Z" fill="#373C44"/>
<path id="Vector_13" d="M21.7614 38.3508C22.7976 38.3508 23.6376 37.5003 23.6376 36.4511C23.6376 35.4019 22.7976 34.5514 21.7614 34.5514C20.7253 34.5514 19.8853 35.4019 19.8853 36.4511C19.8853 37.5003 20.7253 38.3508 21.7614 38.3508Z" fill="#CE8282"/>
<path id="Vector_14" d="M42.9192 38.3508C43.9553 38.3508 44.7953 37.5003 44.7953 36.4511C44.7953 35.4019 43.9553 34.5514 42.9192 34.5514C41.883 34.5514 41.0431 35.4019 41.0431 36.4511C41.0431 37.5003 41.883 38.3508 42.9192 38.3508Z" fill="#CE8282"/>
<path id="Vector_15" d="M21.3823 35.8916C25.204 35.8916 28.3021 32.7545 28.3021 28.8848C28.3021 25.0151 25.204 21.878 21.3823 21.878C17.5606 21.878 14.4626 25.0151 14.4626 28.8848C14.4626 32.7545 17.5606 35.8916 21.3823 35.8916Z" stroke="white" stroke-miterlimit="10"/>
<path id="Vector_16" d="M43.658 35.8916C47.4797 35.8916 50.5778 32.7545 50.5778 28.8848C50.5778 25.0151 47.4797 21.878 43.658 21.878C39.8363 21.878 36.7383 25.0151 36.7383 28.8848C36.7383 32.7545 39.8363 35.8916 43.658 35.8916Z" stroke="white" stroke-miterlimit="10"/>
<path id="Vector_17" d="M28.1994 28.5205C28.1994 28.5205 33.2302 24.4608 36.7383 28.8848" stroke="white" stroke-miterlimit="10"/>
<path id="Vector_18" d="M48.7209 15.8926C48.8688 14.5075 48.946 13.1156 48.9522 11.7224C49.0739 9.61068 48.8833 7.49242 48.3868 5.43773C47.4873 2.38649 44.9751 1.2805 42.0646 0.948697C39.2519 0.705207 36.419 0.996471 33.712 1.80747C31.862 2.32338 30.0517 2.97571 28.2957 3.75922C20.4378 7.22684 13.9292 7.05118 13.2739 4.74811C12.6314 8.20272 14.3918 9.76412 16.4864 10.0309C13.139 9.89424 12.0339 7.83839 12.0339 7.83839C12.0339 7.83839 11.4427 14.7606 17.3988 14.5069C23.3548 14.2532 38.1453 8.90535 41.6148 11.3581C45.0844 13.8108 45.0458 17.5451 48.7209 15.8926Z" fill="#EFCA6F"/>
<path id="Vector_19" d="M48.6889 11.254C48.5604 11.1889 49.7554 6.14037 51.0469 6.14037C52.3383 6.14037 49.8711 9.95279 49.8711 9.95279C49.8711 9.95279 51.7022 7.59768 52.6724 8.1832C53.6426 8.76873 50.2437 11.9761 48.6889 11.254Z" fill="#EFCA6F"/>
<path id="Vector_20" d="M39.8351 26.1328C40.0628 25.6661 40.4169 25.2746 40.856 25.0039C41.2951 24.7332 41.8012 24.5945 42.3152 24.604C42.8334 24.6336 43.3355 24.7971 43.7737 25.0789C43.9715 25.2276 44.1583 25.3906 44.3327 25.5668C44.4961 25.7527 44.6484 25.9482 44.7888 26.1524C44.5689 26.056 44.3544 25.9474 44.1463 25.8271C43.9279 25.7425 43.7287 25.6254 43.5038 25.5538C43.1058 25.3936 42.685 25.2992 42.2574 25.2741C41.8313 25.2612 41.4072 25.3365 41.0109 25.4953C40.5969 25.6631 40.2026 25.877 39.8351 26.1328Z" fill="#EFCA6F"/>
<path id="Vector_21" d="M22.0441 26.1328C22.2712 25.6656 22.6251 25.2737 23.0644 25.0029C23.5036 24.7321 24.01 24.5937 24.5242 24.604C25.0424 24.6335 25.5445 24.7971 25.9827 25.0789C26.1864 25.2205 26.3797 25.3771 26.5609 25.5473C26.7243 25.7331 26.8766 25.9287 27.0171 26.1328C26.7972 26.0364 26.5827 25.9278 26.3746 25.8075C26.1561 25.723 25.957 25.6059 25.7321 25.5343C25.334 25.3741 24.9132 25.2797 24.4856 25.2545C24.0596 25.2417 23.6355 25.317 23.2392 25.4757C22.8176 25.6485 22.4167 25.8689 22.0441 26.1328Z" fill="#EFCA6F"/>
</g>
</g>
</g>
<defs>
<clipPath id="clip0_4_1459">
<rect width="64" height="89" fill="white" transform="translate(-0.000244141 0.844604)"/>
</clipPath>
</defs>
</svg>
