<svg width="11" height="11" viewBox="0 0 11 11" fill="none" xmlns="http://www.w3.org/2000/svg">
<g id="Close" clip-path="url(#clip0_4_1457)">
<path id="Vector" d="M6.64381 5.84863C6.63411 5.83895 6.62641 5.82745 6.62116 5.8148C6.61591 5.80214 6.61321 5.78858 6.61321 5.77488C6.61321 5.76117 6.61591 5.74761 6.62116 5.73495C6.62641 5.7223 6.63411 5.7108 6.64381 5.70113L10.5034 1.84196C10.6206 1.7246 10.6864 1.56549 10.6862 1.39964C10.6861 1.23379 10.6201 1.07478 10.5028 0.957584C10.3854 0.840392 10.2263 0.774619 10.0605 0.774737C9.8946 0.774854 9.73559 0.840851 9.6184 0.958209L5.75923 4.81571C5.74955 4.82541 5.73806 4.83311 5.7254 4.83836C5.71275 4.84361 5.69918 4.84631 5.68548 4.84631C5.67178 4.84631 5.65821 4.84361 5.64555 4.83836C5.6329 4.83311 5.6214 4.82541 5.61173 4.81571L1.75256 0.958209C1.69453 0.900154 1.62564 0.854097 1.54981 0.822667C1.47398 0.791237 1.39271 0.775051 1.31063 0.775031C1.14485 0.774992 0.985851 0.840808 0.868603 0.958001C0.751355 1.07519 0.685464 1.23416 0.685425 1.39994C0.685386 1.56571 0.751202 1.72471 0.868394 1.84196L4.72714 5.70113C4.73685 5.7108 4.74454 5.7223 4.74979 5.73495C4.75504 5.74761 4.75775 5.76117 4.75775 5.77488C4.75775 5.78858 4.75504 5.80214 4.74979 5.8148C4.74454 5.82745 4.73685 5.83895 4.72714 5.84863L0.868394 9.70821C0.810367 9.76626 0.764342 9.83518 0.732948 9.91102C0.701554 9.98687 0.685405 10.0681 0.685425 10.1502C0.685464 10.316 0.751355 10.475 0.868603 10.5922C0.926658 10.6502 0.995574 10.6962 1.07142 10.7276C1.14726 10.759 1.22854 10.7752 1.31063 10.7751C1.4764 10.7751 1.63537 10.7092 1.75256 10.592L5.61173 6.73238C5.6214 6.72268 5.6329 6.71498 5.64555 6.70973C5.65821 6.70448 5.67178 6.70177 5.68548 6.70177C5.69918 6.70177 5.71275 6.70448 5.7254 6.70973C5.73806 6.71498 5.74955 6.72268 5.75923 6.73238L9.6184 10.592C9.73559 10.7092 9.89456 10.7751 10.0603 10.7751C10.2261 10.7752 10.3851 10.7094 10.5024 10.5922C10.6196 10.475 10.6855 10.316 10.6855 10.1502C10.6856 9.98446 10.6198 9.82546 10.5026 9.70821L6.64381 5.84863Z" fill="#9C9CAF"/>
</g>
<defs>
<clipPath id="clip0_4_1457">
<rect width="10" height="10" fill="white" transform="translate(0.685547 0.773071)"/>
</clipPath>
</defs>
</svg>
